<?xml version="1.0" encoding="UTF-8"?>
<svg version="1.1" xmlns="http://www.w3.org/2000/svg" width="1024" height="1024">
<path d="M0 0 C0.70478485 -0.00006042 1.4095697 -0.00012085 2.13571167 -0.00018311 C20.13853475 0.02154448 38.03013425 1.2654134 55.85546875 3.8203125 C59.30456929 4.20766668 62.65714808 4.24918987 66.125 4.1875 C66.125 4.8475 66.125 5.5075 66.125 6.1875 C66.78129395 6.2292334 67.43758789 6.2709668 68.11376953 6.31396484 C75.27071335 6.85537357 82.03687243 8.09997532 89 9.8125 C90.61225464 10.20139404 90.61225464 10.20139404 92.25708008 10.59814453 C100.46075384 12.63532678 108.45588826 15.11657103 116.39990234 18.00244141 C120.8102717 19.57560639 124.36144893 20.57227795 129.125 20.1875 C128.795 20.8475 128.465 21.5075 128.125 22.1875 C129.12015625 22.57679688 130.1153125 22.96609375 131.140625 23.3671875 C156.26142312 33.35328428 179.22257538 46.41462094 200.55078125 63.03222656 C202.30055352 64.35891673 202.30055352 64.35891673 205.0625 65.8984375 C205.743125 66.32382813 206.42375 66.74921875 207.125 67.1875 C207.125 67.8475 207.125 68.5075 207.125 69.1875 C207.68703125 69.43113281 208.2490625 69.67476563 208.828125 69.92578125 C211.56519785 71.42930936 213.58295941 73.25449748 215.875 75.375 C218.81454571 78.07562762 221.75993318 80.74086275 224.8125 83.3125 C234.21377019 91.50503545 243.16373242 100.5921775 251.125 110.1875 C252.16720703 111.39599609 252.16720703 111.39599609 253.23046875 112.62890625 C258.73962405 119.09070504 263.90413511 125.77212437 269 132.5625 C269.64259766 133.41875977 270.28519531 134.27501953 270.94726562 135.15722656 C273.54484032 138.6411451 276.09746664 142.09135124 278.3828125 145.7890625 C278.95773437 146.58054688 279.53265625 147.37203125 280.125 148.1875 C281.115 148.1875 282.105 148.1875 283.125 148.1875 C283.125 149.5075 283.125 150.8275 283.125 152.1875 C284.19500998 154.4539476 284.19500998 154.4539476 285.73046875 156.765625 C286.29523926 157.66659912 286.86000977 158.56757324 287.44189453 159.49584961 C288.05919434 160.46659424 288.67649414 161.43733887 289.3125 162.4375 C296.76784965 174.42927898 303.58172549 186.67793767 310.125 199.1875 C310.87861816 200.61884277 310.87861816 200.61884277 311.64746094 202.07910156 C337.52109437 251.48646273 357.73971047 306.87126181 365.125 362.1875 C365.2796875 363.25508545 365.2796875 363.25508545 365.4375 364.34423828 C366.41114491 371.75611017 366.36864936 379.22431238 366.375 386.6875 C366.37601212 387.75713989 366.37601212 387.75713989 366.37704468 388.84838867 C366.36090493 399.58931485 365.88735081 409.75071488 363.125 420.1875 C362.87556641 421.16614014 362.87556641 421.16614014 362.62109375 422.16455078 C354.03982585 455.14681287 331.22644965 482.61678181 302.23291016 499.95898438 C281.79784612 511.86878774 254.30333529 526.1875 230.125 526.1875 C230.77039872 528.29180001 231.41633376 530.39593554 232.0625 532.5 C232.42214844 533.67175781 232.78179688 534.84351563 233.15234375 536.05078125 C233.78872279 538.10303977 234.44553379 540.14910137 235.125 542.1875 C248.44868445 594.13464863 248.44868445 594.13464863 249.125 620.1875 C249.14546387 620.9206543 249.16592773 621.65380859 249.18701172 622.40917969 C250.2428924 665.7788244 237.3059039 706.12088259 207.20996094 737.95214844 C205.52587862 739.70822503 203.82748331 741.44927286 202.125 743.1875 C201.56345215 743.77241211 201.0019043 744.35732422 200.42333984 744.95996094 C196.26789795 749.22720317 191.86919776 752.96594102 187.125 756.5625 C186.38515869 757.12412842 185.64531738 757.68575684 184.88305664 758.2644043 C177.92890194 763.46237678 170.74159617 768.02900212 163.125 772.1875 C162.20050049 772.69506836 162.20050049 772.69506836 161.25732422 773.21289062 C146.86061587 781.00939952 131.47591979 786.45304417 116 791.6875 C115.24799316 791.94289551 114.49598633 792.19829102 113.72119141 792.46142578 C110.73805105 793.44657517 108.28822257 794.1875 105.125 794.1875 C104.795 794.8475 104.465 795.5075 104.125 796.1875 C102.2528633 796.45006877 100.3782989 796.70063724 98.49755859 796.89208984 C95.17561209 797.30570944 91.97302086 798.0882344 88.71630859 798.85058594 C78.53998805 801.22881583 68.35335417 803.01946084 58 804.4375 C56.81639893 804.60032471 55.63279785 804.76314941 54.41333008 804.9309082 C42.58018354 806.49246227 30.80601971 807.33905299 18.87109375 807.42578125 C17.18036995 807.44054001 17.18036995 807.44054001 15.45549011 807.45559692 C-22.61082614 807.71918987 -57.8031806 804.56256487 -94.875 796.1875 C-96.69385959 795.78317508 -98.51284394 795.37941036 -100.33203125 794.9765625 C-102.08580078 794.58597656 -102.08580078 794.58597656 -103.875 794.1875 C-103.875 794.5175 -103.875 794.8475 -103.875 795.1875 C-105.525 795.1875 -107.175 795.1875 -108.875 795.1875 C-108.875 794.1975 -108.875 793.2075 -108.875 792.1875 C-109.39707031 792.01210693 -109.91914063 791.83671387 -110.45703125 791.65600586 C-120.47295509 788.27168483 -130.33950296 784.77883514 -139.93554688 780.32202148 C-142.78600629 779.0130526 -144.69434945 778.1875 -147.875 778.1875 C-147.545 777.5275 -147.215 776.8675 -146.875 776.1875 C-147.7 775.94 -148.525 775.6925 -149.375 775.4375 C-153.40101907 773.99963605 -157.08941512 772.15702727 -160.875 770.1875 C-161.535 769.8575 -162.195 769.5275 -162.875 769.1875 C-163.535 768.8575 -164.195 768.5275 -164.875 768.1875 C-164.875 767.5275 -164.875 766.8675 -164.875 766.1875 C-165.93460937 765.82205078 -165.93460937 765.82205078 -167.015625 765.44921875 C-170.28972383 764.00450028 -172.78833244 762.18003155 -175.625 760 C-177.18734375 758.80117187 -177.18734375 758.80117187 -178.78125 757.578125 C-179.8021875 756.78921875 -180.823125 756.0003125 -181.875 755.1875 C-182.7928125 754.50171875 -183.710625 753.8159375 -184.65625 753.109375 C-185.4709375 752.49578125 -186.285625 751.8821875 -187.125 751.25 C-187.85203125 750.70472656 -188.5790625 750.15945313 -189.328125 749.59765625 C-190.09382813 748.89962891 -190.09382813 748.89962891 -190.875 748.1875 C-190.875 747.5275 -190.875 746.8675 -190.875 746.1875 C-191.45894531 745.92839844 -192.04289063 745.66929687 -192.64453125 745.40234375 C-208.72326078 736.64492714 -219.97883071 714.36326322 -228.24560547 698.72680664 C-228.6892041 697.8939917 -229.13280273 697.06117676 -229.58984375 696.203125 C-229.98292725 695.45321289 -230.37601074 694.70330078 -230.78100586 693.93066406 C-231.76631532 692.02523354 -231.76631532 692.02523354 -233.875 691.1875 C-234.12671846 689.05741185 -234.36942365 686.92579691 -234.56201172 684.78955078 C-235.08312155 680.45726635 -236.27497246 676.32247338 -237.4375 672.125 C-237.67146484 671.25939453 -237.90542969 670.39378906 -238.14648438 669.50195312 C-238.7167334 667.39552305 -239.29501834 665.29127111 -239.875 663.1875 C-240.535 663.1875 -241.195 663.1875 -241.875 663.1875 C-241.875 659.2275 -241.875 655.2675 -241.875 651.1875 C-242.535 650.8575 -243.195 650.5275 -243.875 650.1875 C-243.77960938 649.51203125 -243.68421875 648.8365625 -243.5859375 648.140625 C-243.47507812 647.24859375 -243.36421875 646.3565625 -243.25 645.4375 C-243.07597656 644.11492187 -243.07597656 644.11492187 -242.8984375 642.765625 C-242.87292183 639.95890122 -243.42656156 638.55365134 -244.875 636.1875 C-244.215 636.1875 -243.555 636.1875 -242.875 636.1875 C-243.05933594 635.43210937 -243.24367188 634.67671875 -243.43359375 633.8984375 C-244.04305418 628.77465515 -243.46888005 623.92827067 -242.9375 618.8125 C-242.78764648 617.27916016 -242.78764648 617.27916016 -242.63476562 615.71484375 C-242.38846786 613.20495227 -242.13501591 610.69600113 -241.875 608.1875 C-242.535 608.1875 -243.195 608.1875 -243.875 608.1875 C-243.545 607.5275 -243.215 606.8675 -242.875 606.1875 C-242.545 606.1875 -242.215 606.1875 -241.875 606.1875 C-241.854375 604.90875 -241.83375 603.63 -241.8125 602.3125 C-241.80089844 601.59320312 -241.78929687 600.87390625 -241.77734375 600.1328125 C-241.74850758 598.10564596 -241.74850758 598.10564596 -242.875 596.1875 C-242.215 596.1875 -241.555 596.1875 -240.875 596.1875 C-240.545 592.5575 -240.215 588.9275 -239.875 585.1875 C-239.215 585.1875 -238.555 585.1875 -237.875 585.1875 C-237.85574463 584.59936523 -237.83648926 584.01123047 -237.81665039 583.40527344 C-237.25771645 574.0891264 -234.75797481 565.39524913 -232.3125 556.4375 C-231.4678332 553.34113187 -230.63489004 550.2419394 -229.80859375 547.140625 C-229.61486679 546.44567932 -229.42113983 545.75073364 -229.22154236 545.034729 C-228.05563643 540.65535767 -227.6929708 536.71064971 -227.875 532.1875 C-227.215 532.1875 -226.555 532.1875 -225.875 532.1875 C-225.215 530.2075 -224.555 528.2275 -223.875 526.1875 C-224.84179688 526.00574219 -225.80859375 525.82398438 -226.8046875 525.63671875 C-234.30186023 524.19899727 -241.615767 522.5958573 -248.875 520.1875 C-249.205 520.8475 -249.535 521.5075 -249.875 522.1875 C-250.865 520.7025 -250.865 520.7025 -251.875 519.1875 C-252.205 519.8475 -252.535 520.5075 -252.875 521.1875 C-253.266875 520.72601562 -253.65875 520.26453125 -254.0625 519.7890625 C-256.25916931 517.84804005 -258.0573372 517.32561701 -260.875 516.5625 C-261.74125 516.32273437 -262.6075 516.08296875 -263.5 515.8359375 C-264.28375 515.62195313 -265.0675 515.40796875 -265.875 515.1875 C-268.875 514.1875 -268.875 514.1875 -270.8125 513.125 C-273.1043158 511.91163137 -273.1043158 511.91163137 -276.875 512.1875 C-277.37 510.7025 -277.37 510.7025 -277.875 509.1875 C-279.81853202 507.84714382 -279.81853202 507.84714382 -282.25 506.69921875 C-283.15363281 506.23966797 -284.05726563 505.78011719 -284.98828125 505.30664062 C-285.94089844 504.83419922 -286.89351563 504.36175781 -287.875 503.875 C-304.5 495.5625 -304.5 495.5625 -309.875 490.1875 C-311.98320797 490.5060177 -311.98320797 490.5060177 -313.875 491.1875 C-313.895625 490.48625 -313.91625 489.785 -313.9375 489.0625 C-315.32479209 484.8081376 -318.39124172 482.83442861 -321.875 480.1875 C-322.535 480.5175 -323.195 480.8475 -323.875 481.1875 C-324.25978516 480.07375 -324.25978516 480.07375 -324.65234375 478.9375 C-325.93110417 476.06131042 -327.26224434 474.43746141 -329.4375 472.1875 C-333.39056956 467.9019968 -336.66494248 463.35752493 -339.90454102 458.52929688 C-341.45095419 456.22720661 -342.90778884 454.15471116 -344.875 452.1875 C-345.57248583 450.87002676 -346.24459957 449.53835807 -346.875 448.1875 C-347.535 448.1875 -348.195 448.1875 -348.875 448.1875 C-349.0915625 446.33125 -349.0915625 446.33125 -349.3125 444.4375 C-349.74941158 440.2292673 -349.74941158 440.2292673 -350.875 436.1875 C-351.865 435.8575 -352.855 435.5275 -353.875 435.1875 C-355.54104077 426.8870469 -357.05141231 418.7738227 -357.53125 410.3046875 C-357.6446875 409.60601563 -357.758125 408.90734375 -357.875 408.1875 C-358.535 407.8575 -359.195 407.5275 -359.875 407.1875 C-360.39114522 379.81327516 -358.29374762 354.06453976 -352.30053711 327.30102539 C-352.14944992 326.62618607 -351.99836273 325.95134674 -351.84269714 325.25605774 C-351.69609146 324.60179306 -351.54948578 323.94752838 -351.3984375 323.2734375 C-350.51480967 319.31917732 -349.70914889 315.44432363 -349.2890625 311.4140625 C-348.875 308.1875 -348.875 308.1875 -346.875 305.1875 C-346.18269546 303.35582884 -345.54003816 301.50511634 -344.9296875 299.64453125 C-344.57519531 298.57138672 -344.22070312 297.49824219 -343.85546875 296.39257812 C-343.49066406 295.27302734 -343.12585938 294.15347656 -342.75 293 C-342.19119141 291.30327148 -342.19119141 291.30327148 -341.62109375 289.57226562 C-340.70167503 286.77864719 -339.78648559 283.98371484 -338.875 281.1875 C-339.535 280.8575 -340.195 280.5275 -340.875 280.1875 C-339.885 278.2075 -339.885 278.2075 -338.875 276.1875 C-338.545 276.5175 -338.215 276.8475 -337.875 277.1875 C-337.52566406 276.13949219 -337.17632812 275.09148437 -336.81640625 274.01171875 C-331.875 259.1875 -331.875 259.1875 -330.1328125 255.765625 C-327.91520081 251.38609052 -326.04894338 246.89186211 -324.17211914 242.35791016 C-311.61620621 212.15905348 -296.99964206 182.2129843 -278.265625 155.33203125 C-276.7229575 153.14941913 -276.7229575 153.14941913 -275.875 150.1875 C-274.57036292 148.49827602 -273.23061458 146.83609475 -271.875 145.1875 C-271.01568462 144.05041929 -270.16325215 142.90811636 -269.31640625 141.76171875 C-259.7050959 128.77722427 -249.83560774 116.04923686 -238.703125 104.32421875 C-236.68057261 102.23165038 -236.68057261 102.23165038 -235.875 99.1875 C-234.4921875 97.828125 -234.4921875 97.828125 -232.75 96.4375 C-227.95424134 92.47234696 -223.33950508 88.38425761 -219.875 83.1875 C-218.74112969 82.27039901 -217.56925315 81.3994561 -216.375 80.5625 C-213.25744827 78.29066709 -210.43274673 75.89346367 -207.625 73.25 C-195.39894 62.11488074 -181.67634773 52.72057061 -167.53613281 44.20703125 C-164.47596124 42.32883071 -161.52393454 40.29177091 -158.57421875 38.24609375 C-156.875 37.1875 -156.875 37.1875 -153.875 36.1875 C-152.19177702 35.39194063 -150.51856309 34.57510723 -148.8515625 33.74609375 C-116.11252405 17.62720831 -83.08233963 7.64688757 -46.875 2.9375 C-45.62412598 2.77427246 -44.37325195 2.61104492 -43.08447266 2.44287109 C-28.72707097 0.66827583 -14.46168849 -0.01938016 0 0 Z M-353.875 430.1875 C-352.875 432.1875 -352.875 432.1875 -352.875 432.1875 Z M-352.875 433.1875 C-351.875 435.1875 -351.875 435.1875 -351.875 435.1875 Z M-232.875 688.1875 C-231.875 690.1875 -231.875 690.1875 -231.875 690.1875 Z " fill="#010101" transform="translate(508.875,107.8125)"/>
<path d="M0 0 C56.60107415 0 113.90900807 18.14869561 160 51 C160.70527832 51.50176758 161.41055664 52.00353516 162.13720703 52.52050781 C170.34791422 58.41100363 178.05239297 64.61630548 185.40234375 71.55078125 C187.57698629 73.6011585 189.78671537 75.56443367 192.0625 77.5 C199.96563674 84.36585005 207.30742754 91.95579035 214 100 C214.45600586 100.54221191 214.91201172 101.08442383 215.38183594 101.64306641 C222.98169285 110.70295892 230.04593773 119.9791825 236.57128906 129.84130859 C237.55265812 131.32409485 238.53928009 132.80341376 239.53027344 134.27978516 C260.17993284 165.05095453 277.61411935 198.43324797 291 233 C291.37527832 233.9595459 291.75055664 234.9190918 292.13720703 235.90771484 C311.29345432 285.09795938 336.45425692 349.74111002 314 402 C308.80507479 413.3533133 301.91874711 422.33598548 293 431 C292.23816406 431.75925781 291.47632813 432.51851562 290.69140625 433.30078125 C284.77814508 438.88854181 278.04745102 442.99661482 271 447 C270.3709375 447.3623877 269.741875 447.72477539 269.09375 448.09814453 C250.77922324 458.5590461 225.35144775 471 204 471 C196.98647226 437.87545899 196.98647226 437.87545899 195 424 C194.89703613 423.28457031 194.79407227 422.56914063 194.68798828 421.83203125 C193.33337901 412.15930788 192.72100072 402.78047477 193 393 C215.94730096 396.42856135 238.99152936 402.40567434 258.6953125 414.94921875 C264.28266246 418.41654585 268.28930843 420.83883645 275 420 C278.32710068 418.30506192 280.38275694 416.93928292 282.4375 413.8125 C283.4602356 408.69882198 283.08307945 403.97779725 280.5625 399.375 C248.14365291 369.32826368 189.68436192 364.7505102 148 360 C146.82147461 359.8649707 145.64294922 359.72994141 144.42871094 359.59082031 C107.4420399 355.4834439 70.08364013 353.85086751 32.88989258 353.29052734 C32.01888916 353.27675049 31.14788574 353.26297363 30.25048828 353.2487793 C28.68275067 353.2251642 27.11495751 353.20475635 25.54711914 353.18920898 C17.00321889 353.06766475 8.55833558 352.47546309 0 352 C0 235.84 0 119.68 0 0 Z " fill="#AEB576" transform="translate(526,137)"/>
<path d="M0 0 C0 116.49 0 232.98 0 353 C-33.165 353.495 -33.165 353.495 -67 354 C-79.034502 354.52650946 -91.00038026 355.07717985 -103 356 C-104.4326061 356.10691952 -105.8652236 356.21368638 -107.29785156 356.3203125 C-199.31336871 360.42287048 -199.31336871 360.42287048 -279 398 C-281.87143575 401.36168087 -282.89030591 403.12244725 -283.4375 407.5 C-282.82416425 412.40668599 -281.60892985 415.62091727 -277.8125 418.875 C-274.12147905 420.35140838 -270.88277461 420.66327628 -267 420 C-263.68944372 418.43500976 -260.94081355 416.65408942 -257.94921875 414.57421875 C-240.84717555 402.81846259 -213.91222718 393 -193 393 C-192.4573273 403.96282987 -194.09506748 414.56659783 -195.6875 425.375 C-195.82183441 426.30465576 -195.95616882 427.23431152 -196.09457397 428.19213867 C-201.19626014 463.39252028 -201.19626014 463.39252028 -205 471 C-211.09969336 470.4054198 -216.65131707 469.11903858 -222.5 467.3125 C-223.81158081 466.9110376 -223.81158081 466.9110376 -225.1496582 466.50146484 C-257.33186454 456.50146007 -291.58202573 440.99383114 -309.0625 410.5234375 C-317.59015315 394.24003084 -321.3950676 378.03755889 -321.3125 359.6875 C-321.31034485 359.0311557 -321.3081897 358.3748114 -321.30596924 357.69857788 C-321.24261325 345.5893445 -320.27137306 333.89384753 -318 322 C-317.80664062 320.98470215 -317.61328125 319.9694043 -317.4140625 318.92333984 C-310.31124905 282.735163 -298.27505195 247.52100175 -283 214 C-282.50097168 212.89124512 -282.00194336 211.78249023 -281.48779297 210.64013672 C-260.56937793 164.20988813 -233.9259605 118.65020755 -197 83 C-194.55004713 80.56557773 -192.11593373 78.11949484 -189.7109375 75.640625 C-183.81551421 69.60718177 -177.66820216 64.16331607 -171 59 C-170.46842285 58.58669434 -169.9368457 58.17338867 -169.38916016 57.74755859 C-144.16495199 38.27842376 -116.26660241 23.83424367 -86 14 C-85.02095703 13.67660645 -84.04191406 13.35321289 -83.03320312 13.02001953 C-56.23183973 4.27869309 -28.1552571 0 0 0 Z " fill="#BD3D7A" transform="translate(498,137)"/>
<path d="M0 0 C48.45027043 0 48.45027043 0 70.1875 1.375 C72.40293493 1.50363921 74.61843056 1.63123724 76.83398438 1.7578125 C97.74340637 2.97950112 118.56213125 4.84136548 139.36914062 7.23217773 C142.31848958 7.57035308 145.26856919 7.90158984 148.21875 8.23242188 C150.10942106 8.44751221 152.00004796 8.66299114 153.890625 8.87890625 C154.76543518 8.97683975 155.64024536 9.07477325 156.54156494 9.17567444 C157.34801453 9.26924728 158.15446411 9.36282013 158.98535156 9.45922852 C159.69097229 9.53979996 160.39659302 9.6203714 161.12359619 9.7033844 C163 10 163 10 166 11 C166.04487549 11.64211426 166.08975098 12.28422852 166.13598633 12.94580078 C169.17746057 55.60219293 178.31360962 96.10275151 190.1875 137.0625 C196.2925764 158.14185917 201.44302175 179.16890684 204 201 C204.13148438 202.04929687 204.26296875 203.09859375 204.3984375 204.1796875 C208.20312646 238.83320583 199.55370782 274.77791935 177.84375 302.3125 C176.5746295 303.88544026 175.29116333 305.4451203 174 307 C173.21882812 307.94746094 172.43765625 308.89492188 171.6328125 309.87109375 C138.01063654 348.72951023 80.02473292 364.1861302 30.875 369.375 C20.60665549 370.09812285 10.29377509 370 0 370 C0 326.77 0 283.54 0 239 C9.9 238.01 9.9 238.01 20 237 C23.67579815 236.3593746 27.15897105 235.72000732 30.75 234.8125 C31.61431641 234.59819336 32.47863281 234.38388672 33.36914062 234.16308594 C55.95387021 228.27105501 76.91226209 214.63160686 90 195 C91.36282103 190.9115369 91.71568291 187.26263889 91 183 C88.93354779 179.53131237 86.89808091 177.19108028 83 176 C76.6661992 175.38705154 74.19673111 176.04467353 69 180 C67.15592715 181.9086827 65.41337701 183.80629834 63.6875 185.8125 C49.94850087 201.14237936 30.72182674 210.78106902 10 212 C6.7 212 3.4 212 0 212 C0 142.04 0 72.08 0 0 Z " fill="#F5E0CD" transform="translate(526,516)"/>
<path d="M0 0 C0 55.44 0 110.88 0 168 C-4.62 168.33 -9.24 168.66 -14 169 C-25.7741141 170.89117895 -36.37635265 174.67726909 -47 180 C-47.60972656 180.30421875 -48.21945312 180.6084375 -48.84765625 180.921875 C-64.6907846 188.99742206 -84.17494717 203.52484152 -90 221 C-90.46196347 228.04080733 -90.46196347 228.04080733 -87 234 C-82.69100414 237.07785419 -79.23833188 237.44800755 -74.16015625 236.6171875 C-67.25991592 234.64569026 -63.90856723 228.2157285 -59.98046875 222.703125 C-48.73689406 207.35686526 -29.58256717 198.71878371 -11.3125 195.3125 C-7.55690349 194.95819844 -3.77227183 195 0 195 C0 252.75 0 310.5 0 370 C-21.06757113 370 -21.06757113 370 -27.25 369.3125 C-28.04970215 369.22637451 -28.8494043 369.14024902 -29.67333984 369.05151367 C-82.59844678 362.95085033 -140.95895616 347.21261207 -176.390625 304.31640625 C-193.29578504 282.78718773 -204.08011166 256.55832144 -205 229 C-205.0515625 227.83597656 -205.103125 226.67195312 -205.15625 225.47265625 C-205.68800989 207.81690957 -203.09920574 190.14619148 -199.3828125 172.9296875 C-199.1242749 171.72929337 -198.8657373 170.52889923 -198.59936523 169.29212952 C-195.6286834 155.84792498 -191.84267682 142.65346049 -188 129.4375 C-176.68136683 90.4513918 -168.90184487 51.5314259 -166 11 C-160.13764636 9.40695539 -154.42843818 8.43869775 -148.39453125 7.78125 C-147.48672913 7.67843216 -146.578927 7.57561432 -145.64361572 7.46968079 C-142.70065246 7.13928714 -139.7567788 6.8184461 -136.8125 6.5 C-135.79582245 6.38917084 -134.7791449 6.27834167 -133.73165894 6.16415405 C-108.19022101 3.39166856 -82.73091468 1.87805332 -57.0625 0.875 C-55.94634308 0.83025543 -54.83018616 0.78551086 -53.6802063 0.7394104 C-35.76328556 0.03341007 -17.95083051 0 0 0 Z " fill="#F5E1CE" transform="translate(498,516)"/>
<path d="M0 0 C12.79596686 8.91147692 20.55035693 20.01205262 23.875 35.25 C23.9575 36.425625 24.04 37.60125 24.125 38.8125 C24.23714844 40.06546875 24.23714844 40.06546875 24.3515625 41.34375 C24.986046 53.76626907 20.9482958 66.13896457 13.125 75.8125 C12.67511719 76.42222656 12.22523438 77.03195312 11.76171875 77.66015625 C5.15975427 86.12182903 -3.74197685 90.80172954 -13.875 93.8125 C-14.47957031 94.00328125 -15.08414063 94.1940625 -15.70703125 94.390625 C-29.53759919 97.08197876 -43.61065578 94.27744525 -55.3125 86.5 C-67.02877074 77.48449482 -74.58857264 67.03677975 -77.5625 52.4375 C-79.00610745 35.69165356 -74.90475969 22.14351177 -64.1875 9.125 C-47.5570249 -8.80423601 -21.01819707 -12.60505543 0 0 Z " fill="#FCF6EE" transform="translate(423.875,209.1875)"/>
<path d="M0 0 C9.67273213 6.97733235 15.57500225 14.91250676 19.375 26.3125 C20.72058009 40.16856836 19.38524856 51.47712193 11.25 63.0625 C4.92561779 70.62426134 -3.0190894 76.04307917 -12.625 78.3125 C-13.470625 78.539375 -14.31625 78.76625 -15.1875 79 C-26.85865844 80.49630236 -38.75068583 77.55416456 -48.125 70.40625 C-58.53673105 61.60585828 -63.51700234 51.84531724 -64.94140625 38.3046875 C-65.39266139 27.15431857 -61.81889889 16.8465899 -54.625 8.3125 C-49.01382798 2.40499692 -43.42666724 -2.13753872 -35.625 -4.6875 C-34.75875 -4.97367187 -34.75875 -4.97367187 -33.875 -5.265625 C-22.30482691 -7.43503245 -10.03073446 -6.23945686 0 0 Z " fill="#FCF6EE" transform="translate(322.625,355.6875)"/>
<path d="M0 0 C10.12574258 8.18965414 14.71707818 20.31376216 16.11328125 33.0078125 C16.6042656 47.49185084 12.5664998 60.8277501 2.81640625 71.65234375 C-3.04598609 77.25781849 -9.217156 79.56596448 -17.26953125 79.96484375 C-25.34604926 79.66478735 -31.59641595 76.00148311 -37.41796875 70.57421875 C-44.4586372 62.79086376 -48.40297388 52.92603223 -49.26953125 42.52734375 C-49.34558594 41.61597656 -49.42164063 40.70460938 -49.5 39.765625 C-50.00642802 28.6378957 -47.47660169 15.91616111 -39.99609375 7.265625 C-39.14144531 6.40517578 -39.14144531 6.40517578 -38.26953125 5.52734375 C-37.57601562 4.81964844 -36.8825 4.11195313 -36.16796875 3.3828125 C-25.24411656 -7.03426305 -12.93619613 -8.39405498 0 0 Z " fill="#010101" transform="translate(621.26953125,573.47265625)"/>
<path d="M0 0 C9.03853056 5.69592307 14.58330512 15.85225693 17.58300781 25.96557617 C19.66622866 36.12920575 18.78732765 48.41641439 15 58 C14.74476563 58.68835938 14.48953125 59.37671875 14.2265625 60.0859375 C10.98852002 67.60176086 4.95510049 74.84335307 -2.375 78.5625 C-9.92630706 81.55698384 -16.43292846 82.23257147 -24.1875 79.375 C-33.03854583 75.38579625 -37.64268224 69.55139306 -42 61 C-42.41636719 60.23558594 -42.83273437 59.47117187 -43.26171875 58.68359375 C-48.19875035 47.89141589 -47.80680332 32.40574782 -44.375 21.1875 C-40.09049415 10.76087039 -33.49529423 2.16626403 -23 -2.4375 C-14.47107203 -5.44082677 -7.93363251 -4.29378556 0 0 Z " fill="#010101" transform="translate(434,572)"/>
<path d="M0 0 C7.03717019 3.23560329 11.12708888 7.79158099 14.88671875 14.43359375 C17.27697274 22.26831517 16.52781696 29.74261493 13.01171875 37.12109375 C9.09673533 44.07269893 3.65434785 48.44122707 -4.03515625 50.73046875 C-12.21253425 52.36594435 -19.11981785 50.25545685 -26.0390625 45.80078125 C-31.39527596 41.60297799 -33.87146899 36.47153054 -35.98828125 30.12109375 C-36.93701251 21.97555819 -35.59409863 15.91409576 -30.98828125 9.12109375 C-22.94321282 -0.81363028 -12.43324411 -3.6568365 0 0 Z " fill="#FCF6EE" transform="translate(440.98828125,399.87890625)"/>
<path d="M0 0 C7.00207583 0 13.16855602 0.10407292 20 1 C20 1.33 20 1.66 20 2 C14.06 2 8.12 2 2 2 C2 117.17 2 232.34 2 351 C16.52 351 31.04 351 46 351 C51.94 351.33 57.88 351.66 64 352 C64 352.33 64 352.66 64 353 C57.77848592 353.02507742 51.55700249 353.04303484 45.33544922 353.05493164 C43.22737108 353.05990125 41.11929627 353.06667926 39.01123047 353.07543945 C35.94758268 353.08783403 32.88398115 353.09330194 29.8203125 353.09765625 C28.90702179 353.10281754 27.99373108 353.10797882 27.05276489 353.11329651 C17.97799681 353.11404187 9.11417504 352.50634306 0 352 C0 235.84 0 119.68 0 0 Z " fill="#D7DE91" transform="translate(526,137)"/>
<path d="M0 0 C42 0 42 0 56 1 C56 1.33 56 1.66 56 2 C38.18 2 20.36 2 2 2 C2 70.97 2 139.94 2 211 C3.32 210.67 4.64 210.34 6 210 C7.74886981 209.93375493 9.50002748 209.91447405 11.25 209.9375 C12.14203125 209.94652344 13.0340625 209.95554687 13.953125 209.96484375 C14.96632813 209.98224609 14.96632813 209.98224609 16 210 C16 210.33 16 210.66 16 211 C10.4156021 212.17566272 6.01330943 212 0 212 C0 142.04 0 72.08 0 0 Z " fill="#FBF7EF" transform="translate(526,516)"/>
<path d="M0 0 C4.95 0 9.9 0 15 0 C15 0.33 15 0.66 15 1 C8.565 1.495 8.565 1.495 2 2 C2 44.24 2 86.48 2 130 C5.63 130 9.26 130 13 130 C13 130.33 13 130.66 13 131 C8.71 131 4.42 131 0 131 C0 87.77 0 44.54 0 0 Z " fill="#FDFAF2" transform="translate(526,755)"/>
<path d="M0 0 C0.33 0 0.66 0 1 0 C1.66 4.62 2.32 9.24 3 14 C3.33 14 3.66 14 4 14 C4.125 20.75 4.125 20.75 3 23 C2.781346 24.51818102 2.60981021 26.04333251 2.46484375 27.5703125 C2.37783203 28.46621094 2.29082031 29.36210938 2.20117188 30.28515625 C2.11416016 31.22230469 2.02714844 32.15945313 1.9375 33.125 C1.80118164 34.54232422 1.80118164 34.54232422 1.66210938 35.98828125 C1.43785901 38.32520611 1.21730943 40.66242116 1 43 C0.67 43 0.34 43 0 43 C0 28.81 0 14.62 0 0 Z " fill="#ECD7C2" transform="translate(727,714)"/>
<path d="M0 0 C0 0.33 0 0.66 0 1 C-9.70953473 2.28846906 -19.18003888 3.34057669 -29 3 C-29 2.67 -29 2.34 -29 2 C-26.69 2 -24.38 2 -22 2 C-22 1.34 -22 0.68 -22 0 C-14.76807212 -1.56366008 -7.21378059 -1.64364621 0 0 Z " fill="#D4468E" transform="translate(377,493)"/>
<path d="M0 0 C2.90990931 2.90990931 2.97993468 6.33353199 3.625 10.25 C3.82609375 11.37728516 3.82609375 11.37728516 4.03125 12.52734375 C4.75076645 16.73431236 5.15011643 20.71485831 5 25 C2.08410391 20.62615587 0.69745284 17.29457529 1 12 C0.67 12 0.34 12 0 12 C-0.19477739 10.37585622 -0.38059458 8.75063577 -0.5625 7.125 C-0.66691406 6.22007812 -0.77132812 5.31515625 -0.87890625 4.3828125 C-1 2 -1 2 0 0 Z " fill="#ECE2D7" transform="translate(695,572)"/>
<path d="M0 0 C2 2 2 2 2.046875 5.5546875 C1.95898751 6.99550968 1.85954252 8.43566224 1.75 9.875 C1.71003906 10.59558594 1.67007812 11.31617188 1.62890625 12.05859375 C1.37485751 15.78693062 1.0342071 18.81529871 -1 22 C-1.33 21.67 -1.66 21.34 -2 21 C-1.79284028 13.9754022 -1.15555777 6.9333466 0 0 Z " fill="#E9DFD7" transform="translate(328,566)"/>
<path d="M0 0 C-0.33 7.26 -0.66 14.52 -1 22 C-1.33 22 -1.66 22 -2 22 C-2.93854006 14.96094956 -3.10808032 8.09727428 -3 1 C-1 0 -1 0 0 0 Z " fill="#E9D5C2" transform="translate(692,527)"/>
<path d="M0 0 C0 3.68553144 -0.8522582 5.03759752 -3 8 C-5.5625 9.875 -5.5625 9.875 -8 11 C-8.66 10.67 -9.32 10.34 -10 10 C-8.7121669 8.51749445 -7.41960936 7.03909182 -6.125 5.5625 C-5.40570313 4.73878906 -4.68640625 3.91507813 -3.9453125 3.06640625 C-2 1 -2 1 0 0 Z " fill="#D44790" transform="translate(305,216)"/>
<path d="M0 0 C1.07894531 0.03480469 2.15789062 0.06960937 3.26953125 0.10546875 C4.35621094 0.13253906 5.44289063 0.15960938 6.5625 0.1875 C7.80966797 0.23970703 7.80966797 0.23970703 9.08203125 0.29296875 C9.08203125 1.28296875 9.08203125 2.27296875 9.08203125 3.29296875 C4.13203125 3.29296875 -0.81796875 3.29296875 -5.91796875 3.29296875 C-2.91796875 0.29296875 -2.91796875 0.29296875 0 0 Z " fill="#B33973" transform="translate(487.91796875,136.70703125)"/>
<path d="M0 0 C4.95 0 9.9 0 15 0 C15.33 0.66 15.66 1.32 16 2 C13.34286645 2.88571118 10.78089761 3.14623516 8 3.25 C7.34 3.27578125 6.68 3.3015625 6 3.328125 C4 3 4 3 0 0 Z " fill="#A3AA6F" transform="translate(604,489)"/>
<path d="M0 0 C4.29 0 8.58 0 13 0 C13 0.99 13 1.98 13 3 C11.58376784 3.05447047 10.16691809 3.09300508 8.75 3.125 C7.96109375 3.14820313 7.1721875 3.17140625 6.359375 3.1953125 C3.79268059 2.9828378 2.2083933 2.28654105 0 1 C0 0.67 0 0.34 0 0 Z " fill="#E2D1C1" transform="translate(535,883)"/>
<path d="M0 0 C0.33 0.66 0.66 1.32 1 2 C-0.39692328 4.79384655 -2.43206743 5.08242843 -5.2109375 6.203125 C-7.40050954 7.1783929 -9.16930968 8.46222013 -11 10 C-11.66 9.67 -12.32 9.34 -13 9 C-11.20966193 7.68568828 -9.41768797 6.3736047 -7.625 5.0625 C-6.62726563 4.33160156 -5.62953125 3.60070312 -4.6015625 2.84765625 C-2 1 -2 1 0 0 Z " fill="#E34A9A" transform="translate(350,180)"/>
<path d="M0 0 C4.62 0 9.24 0 14 0 C11 3 11 3 7.5625 3.375 C4 3 4 3 0 0 Z " fill="#A1A76D" transform="translate(621,490)"/>
<path d="M0 0 C-1.11328125 1.51953125 -1.11328125 1.51953125 -3 3 C-5.91796875 3.07421875 -5.91796875 3.07421875 -9.1875 2.6875 C-10.27417969 2.56761719 -11.36085938 2.44773437 -12.48046875 2.32421875 C-13.31191406 2.21722656 -14.14335937 2.11023438 -15 2 C-15 1.67 -15 1.34 -15 1 C-12.87630763 0.63807496 -10.7509887 0.28568253 -8.625 -0.0625 C-6.84996094 -0.35833984 -6.84996094 -0.35833984 -5.0390625 -0.66015625 C-2 -1 -2 -1 0 0 Z " fill="#AC1C59" transform="translate(441,450)"/>
<path d="M0 0 C0.99 0 1.98 0 3 0 C3.33 2.97 3.66 5.94 4 9 C3.01 9 2.02 9 1 9 C0.67 6.03 0.34 3.06 0 0 Z " fill="#E7DACC" transform="translate(723,691)"/>
<path d="M0 0 C2.97 0.33 5.94 0.66 9 1 C9 1.66 9 2.32 9 3 C6.03 3 3.06 3 0 3 C0 2.01 0 1.02 0 0 Z " fill="#E6D6C7" transform="translate(385,520)"/>
<path d="M0 0 C0.33 0 0.66 0 1 0 C1 3.3 1 6.6 1 10 C0.01 10 -0.98 10 -2 10 C-2.1953125 3.9453125 -2.1953125 3.9453125 -2 2 C-1.34 1.34 -0.68 0.68 0 0 Z " fill="#F6E6E8" transform="translate(456,418)"/>
<path d="M0 0 C0.33 0 0.66 0 1 0 C0.88557539 1.60495567 0.75805306 3.20898119 0.625 4.8125 C0.55539062 5.70582031 0.48578125 6.59914063 0.4140625 7.51953125 C0 10 0 10 -2 13 C-2 9.37 -2 5.74 -2 2 C-1.34 2 -0.68 2 0 2 C0 1.34 0 0.68 0 0 Z " fill="#E6509F" transform="translate(297,582)"/>
<path d="M0 0 C1.32 1.65 2.64 3.3 4 5 C3.01 5 2.02 5 1 5 C0.67 3.35 0.34 1.7 0 0 Z " fill="#3A2F32" transform="translate(177,578)"/>
<path d="M0 0 C0.99 0.33 1.98 0.66 3 1 C2.67 1.99 2.34 2.98 2 4 C1.01 3.01 0.02 2.02 -1 1 C-0.67 0.67 -0.34 0.34 0 0 Z " fill="#3B3032" transform="translate(393,898)"/>
<path d="M0 0 C0.33 0 0.66 0 1 0 C1 1.65 1 3.3 1 5 C0.01 5.495 0.01 5.495 -1 6 C-1.042721 4.33388095 -1.04063832 2.66617115 -1 1 C-0.67 0.67 -0.34 0.34 0 0 Z " fill="#3E3335" transform="translate(265,719)"/>
<path d="M0 0 C0.33 0 0.66 0 1 0 C1 1.98 1 3.96 1 6 C0.34 5.01 -0.32 4.02 -1 3 C-0.67 2.01 -0.34 1.02 0 0 Z " fill="#3B3032" transform="translate(266,759)"/>
<path d="M0 0 C0.33 0 0.66 0 1 0 C1 2.31 1 4.62 1 7 C0.67 7 0.34 7 0 7 C0 4.69 0 2.38 0 0 Z " fill="#363031" transform="translate(759,739)"/>
<path d="M0 0 C0.33 0 0.66 0 1 0 C1 2.31 1 4.62 1 7 C0.67 7 0.34 7 0 7 C0 4.69 0 2.38 0 0 Z " fill="#3E3436" transform="translate(264,727)"/>
<path d="M0 0 C1.32 0.33 2.64 0.66 4 1 C4 1.66 4 2.32 4 3 C3.34 3 2.68 3 2 3 C2 2.34 2 1.68 2 1 C1.34 0.67 0.68 0.34 0 0 Z " fill="#3B2F33" transform="translate(170,572)"/>
<path d="M0 0 C0.99 0.33 1.98 0.66 3 1 C2.01 2.485 2.01 2.485 1 4 C0.67 2.68 0.34 1.36 0 0 Z " fill="#3A2F32" transform="translate(177,360)"/>
<path d="M0 0 C0.66 0.33 1.32 0.66 2 1 C1.67 1.99 1.34 2.98 1 4 C0.34 3.67 -0.32 3.34 -1 3 C-0.67 2.01 -0.34 1.02 0 0 Z " fill="#342B2C" transform="translate(321,860)"/>
<path d="M0 0 C0.99 0.33 1.98 0.66 3 1 C2.34 1.66 1.68 2.32 1 3 C0.67 2.01 0.34 1.02 0 0 Z " fill="#352C2E" transform="translate(200,304)"/>
<path d="M0 0 C1.98 0 3.96 0 6 0 C6 0.33 6 0.66 6 1 C4.02 1 2.04 1 0 1 C0 0.67 0 0.34 0 0 Z " fill="#413538" transform="translate(440,112)"/>
<path d="M0 0 C1.32 0.33 2.64 0.66 4 1 C3.01 1.33 2.02 1.66 1 2 C0.67 1.34 0.34 0.68 0 0 Z " fill="#413337" transform="translate(432,909)"/>
<path d="M0 0 C0.33 0 0.66 0 1 0 C1 1.65 1 3.3 1 5 C0.67 5 0.34 5 0 5 C0 3.35 0 1.7 0 0 Z " fill="#3F3336" transform="translate(274,664)"/>
<path d="M0 0 C0.99 0.33 1.98 0.66 3 1 C2.34 1.66 1.68 2.32 1 3 C0.67 2.01 0.34 1.02 0 0 Z " fill="#392F30" transform="translate(281,635)"/>
<path d="M0 0 C0.33 0.66 0.66 1.32 1 2 C0.34 2.66 -0.32 3.32 -1 4 C-0.67 2.68 -0.34 1.36 0 0 Z " fill="#392F31" transform="translate(185,344)"/>
<path d="M0 0 C0.66 0.33 1.32 0.66 2 1 C1.67 1.66 1.34 2.32 1 3 C0.34 2.67 -0.32 2.34 -1 2 C-0.67 1.34 -0.34 0.68 0 0 Z " fill="#372D30" transform="translate(193,320)"/>
<path d="M0 0 C0.66 1.32 1.32 2.64 2 4 C1.34 3.67 0.68 3.34 0 3 C0 2.01 0 1.02 0 0 Z " fill="#2F2A29" transform="translate(822,310)"/>
<path d="M0 0 C0.66 0.33 1.32 0.66 2 1 C1.01 1.66 0.02 2.32 -1 3 C-0.67 2.01 -0.34 1.02 0 0 Z " fill="#332A2C" transform="translate(264,215)"/>
<path d="M0 0 C0.99 0.33 1.98 0.66 3 1 C2.34 1.66 1.68 2.32 1 3 C0.67 2.01 0.34 1.02 0 0 Z " fill="#362B2D" transform="translate(284,192)"/>
<path d="M0 0 C0.99 0.33 1.98 0.66 3 1 C2.01 1.33 1.02 1.66 0 2 C0 1.34 0 0.68 0 0 Z " fill="#342E2F" transform="translate(614,120)"/>
<path d="M0 0 C0.99 0.33 1.98 0.66 3 1 C2.01 1 1.02 1 0 1 C0 0.67 0 0.34 0 0 Z " fill="#372D2F" transform="translate(329,866)"/>
<path d="M0 0 C0.66 0.66 1.32 1.32 2 2 C1.01 2.495 1.01 2.495 0 3 C0 2.01 0 1.02 0 0 Z " fill="#362B2E" transform="translate(323,861)"/>
<path d="M0 0 C1 4 1 4 1 4 Z " fill="#342A2C" transform="translate(304,842)"/>
<path d="M0 0 C0.99 1.485 0.99 1.485 2 3 C1.34 3 0.68 3 0 3 C0 2.01 0 1.02 0 0 Z " fill="#342A2B" transform="translate(283,813)"/>
<path d="M0 0 C1 4 1 4 1 4 Z " fill="#3B3234" transform="translate(266,706)"/>
<path d="M0 0 C0.99 0.33 1.98 0.66 3 1 C2.01 1.33 1.02 1.66 0 2 C0 1.34 0 0.68 0 0 Z " fill="#3D3134" transform="translate(759,630)"/>
<path d="M0 0 C0.99 0.33 1.98 0.66 3 1 C2.01 1 1.02 1 0 1 C0 0.67 0 0.34 0 0 Z " fill="#3A2F32" transform="translate(192,594)"/>
<path d="M0 0 C0.66 0 1.32 0 2 0 C1.67 0.99 1.34 1.98 1 3 C0.67 2.01 0.34 1.02 0 0 Z " fill="#2F2C2A" transform="translate(814,296)"/>
<path d="M0 0 C0.66 0 1.32 0 2 0 C1.67 0.99 1.34 1.98 1 3 C0.67 2.01 0.34 1.02 0 0 Z " fill="#2E2A28" transform="translate(806,282)"/>
<path d="M0 0 C0.66 0.33 1.32 0.66 2 1 C1.01 1 0.02 1 -1 1 C-0.67 0.67 -0.34 0.34 0 0 Z " fill="#302829" transform="translate(304,176)"/>
<path d="M0 0 C0.99 0.33 1.98 0.66 3 1 C2.01 1 1.02 1 0 1 C0 0.67 0 0.34 0 0 Z " fill="#312A2B" transform="translate(336,152)"/>
<path d="M0 0 C0.99 0.33 1.98 0.66 3 1 C2.01 1.33 1.02 1.66 0 2 C0 1.34 0 0.68 0 0 Z " fill="#372E30" transform="translate(384,128)"/>
<path d="M0 0 C0.66 0.66 1.32 1.32 2 2 C1.01 1.67 0.02 1.34 -1 1 C-0.67 0.67 -0.34 0.34 0 0 Z " fill="#362F2F" transform="translate(622,122)"/>
<path d="M0 0 C0.99 0.33 1.98 0.66 3 1 C2.01 1.33 1.02 1.66 0 2 C0 1.34 0 0.68 0 0 Z " fill="#3E3336" transform="translate(407,120)"/>
<path d="M0 0 C0.99 0.33 1.98 0.66 3 1 C2.01 1 1.02 1 0 1 C0 0.67 0 0.34 0 0 Z " fill="#3C3232" transform="translate(590,114)"/>
<path d="M0 0 C4 1 4 1 4 1 Z " fill="#3E3335" transform="translate(435,113)"/>
<path d="M0 0 C0.66 0.66 1.32 1.32 2 2 C1.01 1.67 0.02 1.34 -1 1 C-0.67 0.67 -0.34 0.34 0 0 Z " fill="#43393A" transform="translate(534,106)"/>
<path d="M0 0 C3 1 3 1 3 1 Z " fill="#413536" transform="translate(428,908)"/>
<path d="M0 0 C3 1 3 1 3 1 Z " fill="#3D3133" transform="translate(397,900)"/>
<path d="M0 0 C3 1 3 1 3 1 Z " fill="#362C2E" transform="translate(660,886)"/>
<path d="M0 0 C0.66 0.66 1.32 1.32 2 2 C1.34 2 0.68 2 0 2 C0 1.34 0 0.68 0 0 Z " fill="#392E30" transform="translate(357,883)"/>
<path d="M0 0 C0.66 0.66 1.32 1.32 2 2 C1.34 2 0.68 2 0 2 C0 1.34 0 0.68 0 0 Z " fill="#322A2A" transform="translate(300,838)"/>
<path d="" fill="#383031" transform="translate(0,0)"/>
<path d="" fill="#3C3234" transform="translate(0,0)"/>
<path d="M0 0 C3 1 3 1 3 1 Z " fill="#393032" transform="translate(755,631)"/>
<path d="M0 0 C0.99 0.495 0.99 0.495 2 1 C1.01 1.495 1.01 1.495 0 2 C0 1.34 0 0.68 0 0 Z " fill="#403335" transform="translate(764,629)"/>
<path d="M0 0 C0.66 0.66 1.32 1.32 2 2 C1.34 2 0.68 2 0 2 C0 1.34 0 0.68 0 0 Z " fill="#3E3033" transform="translate(216,610)"/>
<path d="" fill="#45383C" transform="translate(0,0)"/>
<path d="" fill="#3E3636" transform="translate(0,0)"/>
<path d="" fill="#45373B" transform="translate(0,0)"/>
<path d="M0 0 C0.66 0.66 1.32 1.32 2 2 C1.34 2 0.68 2 0 2 C0 1.34 0 0.68 0 0 Z " fill="#413439" transform="translate(154,435)"/>
<path d="" fill="#35302F" transform="translate(0,0)"/>
<path d="" fill="#352D2D" transform="translate(0,0)"/>
<path d="" fill="#312C2B" transform="translate(0,0)"/>
<path d="" fill="#382E2F" transform="translate(0,0)"/>
<path d="M0 0 C0.33 0.66 0.66 1.32 1 2 C0.34 1.67 -0.32 1.34 -1 1 C-0.67 0.67 -0.34 0.34 0 0 Z " fill="#362C2C" transform="translate(213,288)"/>
<path d="M0 0 C0.66 0 1.32 0 2 0 C1.67 0.66 1.34 1.32 1 2 C0.67 1.34 0.34 0.68 0 0 Z " fill="#33292C" transform="translate(216,281)"/>
<path d="M0 0 C0.66 0.66 1.32 1.32 2 2 C1.34 2 0.68 2 0 2 C0 1.34 0 0.68 0 0 Z " fill="#2F2A29" transform="translate(781,242)"/>
<path d="M0 0 C0.99 0.495 0.99 0.495 2 1 C1.01 1.495 1.01 1.495 0 2 C0 1.34 0 0.68 0 0 Z " fill="#30282A" transform="translate(240,242)"/>
<path d="M0 0 C3 1 3 1 3 1 Z " fill="#312829" transform="translate(240,240)"/>
<path d="M0 0 C0.66 0 1.32 0 2 0 C1.67 0.66 1.34 1.32 1 2 C0.67 1.34 0.34 0.68 0 0 Z " fill="#2C2726" transform="translate(766,224)"/>
<path d="M0 0 C3 1 3 1 3 1 Z " fill="#342B2C" transform="translate(274,203)"/>
<path d="M0 0 C3 1 3 1 3 1 Z " fill="#33292C" transform="translate(320,163)"/>
<path d="M0 0 C0.66 0 1.32 0 2 0 C1.67 0.66 1.34 1.32 1 2 C0.67 1.34 0.34 0.68 0 0 Z " fill="#342B2A" transform="translate(696,160)"/>
<path d="M0 0 C3 1 3 1 3 1 Z " fill="#352D2F" transform="translate(360,139)"/>
<path d="M0 0 C0.33 0.66 0.66 1.32 1 2 C0.34 1.67 -0.32 1.34 -1 1 C-0.67 0.67 -0.34 0.34 0 0 Z " fill="#362C2F" transform="translate(364,137)"/>
<path d="M0 0 C0.66 0 1.32 0 2 0 C1.67 0.66 1.34 1.32 1 2 C0.67 1.34 0.34 0.68 0 0 Z " fill="#332E2B" transform="translate(662,136)"/>
<path d="M0 0 C3 1 3 1 3 1 Z " fill="#342A2E" transform="translate(366,136)"/>
<path d="M0 0 C3 1 3 1 3 1 Z " fill="#342D2F" transform="translate(360,136)"/>
<path d="M0 0 C3 1 3 1 3 1 Z " fill="#382F2F" transform="translate(618,122)"/>
<path d="M0 0 C3 1 3 1 3 1 Z " fill="#393030" transform="translate(620,120)"/>
<path d="M0 0 C3 1 3 1 3 1 Z " fill="#3F3537" transform="translate(432,112)"/>
<path d="M0 0 C2 1 2 1 2 1 Z " fill="#46393B" transform="translate(525,916)"/>
<path d="M0 0 C2 1 2 1 2 1 Z " fill="#45373A" transform="translate(518,916)"/>
<path d="M0 0 C2 1 2 1 2 1 Z " fill="#483A3D" transform="translate(494,916)"/>
<path d="M0 0 C2 1 2 1 2 1 Z " fill="#433538" transform="translate(594,908)"/>
<path d="M0 0 C2 1 2 1 2 1 Z " fill="#403337" transform="translate(419,906)"/>
<path d="M0 0 C2 1 2 1 2 1 Z " fill="#3B2E32" transform="translate(378,893)"/>
<path d="M0 0 C2 1 2 1 2 1 Z " fill="#382D2E" transform="translate(646,892)"/>
<path d="" fill="#372E2F" transform="translate(0,0)"/>
<path d="" fill="#382E2F" transform="translate(0,0)"/>
<path d="M0 0 C2 1 2 1 2 1 Z " fill="#362D2C" transform="translate(700,861)"/>
<path d="" fill="#342B2D" transform="translate(0,0)"/>
<path d="" fill="#322B2B" transform="translate(0,0)"/>
<path d="" fill="#352E2D" transform="translate(0,0)"/>
<path d="" fill="#332B2B" transform="translate(0,0)"/>
<path d="" fill="#332B2D" transform="translate(0,0)"/>
<path d="" fill="#362C2E" transform="translate(0,0)"/>
<path d="" fill="#383031" transform="translate(0,0)"/>
<path d="" fill="#393031" transform="translate(0,0)"/>
<path d="" fill="#3C3234" transform="translate(0,0)"/>
<path d="" fill="#3B3135" transform="translate(0,0)"/>
<path d="" fill="#372E30" transform="translate(0,0)"/>
<path d="" fill="#3A3232" transform="translate(0,0)"/>
<path d="" fill="#3B3233" transform="translate(0,0)"/>
<path d="M0 0 C2 1 2 1 2 1 Z " fill="#3D2F35" transform="translate(263,630)"/>
<path d="M0 0 C2 1 2 1 2 1 Z " fill="#443437" transform="translate(236,620)"/>
<path d="M0 0 C2 1 2 1 2 1 Z " fill="#403235" transform="translate(222,614)"/>
<path d="" fill="#39302F" transform="translate(0,0)"/>
<path d="" fill="#3C3434" transform="translate(0,0)"/>
<path d="" fill="#413538" transform="translate(0,0)"/>
<path d="" fill="#44363B" transform="translate(0,0)"/>
<path d="" fill="#46363A" transform="translate(0,0)"/>
<path d="" fill="#44373B" transform="translate(0,0)"/>
<path d="" fill="#46373C" transform="translate(0,0)"/>
<path d="" fill="#3F3838" transform="translate(0,0)"/>
<path d="" fill="#383131" transform="translate(0,0)"/>
<path d="" fill="#403337" transform="translate(0,0)"/>
<path d="" fill="#342D2D" transform="translate(0,0)"/>
<path d="" fill="#332D2D" transform="translate(0,0)"/>
<path d="" fill="#3A2F32" transform="translate(0,0)"/>
<path d="" fill="#3B2F33" transform="translate(0,0)"/>
<path d="" fill="#392D2F" transform="translate(0,0)"/>
<path d="" fill="#302C2B" transform="translate(0,0)"/>
<path d="M0 0 C2 1 2 1 2 1 Z " fill="#382E31" transform="translate(193,325)"/>
<path d="" fill="#322D2B" transform="translate(0,0)"/>
<path d="M0 0 C2 1 2 1 2 1 Z " fill="#33292B" transform="translate(200,312)"/>
<path d="" fill="#312B28" transform="translate(0,0)"/>
<path d="" fill="#302728" transform="translate(0,0)"/>
<path d="" fill="#2F2A28" transform="translate(0,0)"/>
<path d="M0 0 C2 1 2 1 2 1 Z " fill="#322D2B" transform="translate(676,145)"/>
<path d="" fill="#332D2C" transform="translate(0,0)"/>
<path d="M0 0 C2 1 2 1 2 1 Z " fill="#32292C" transform="translate(349,145)"/>
<path d="M0 0 C2 1 2 1 2 1 Z " fill="#2E2A28" transform="translate(670,144)"/>
<path d="M0 0 C2 1 2 1 2 1 Z " fill="#322C2A" transform="translate(658,138)"/>
<path d="M0 0 C2 1 2 1 2 1 Z " fill="#2D282A" transform="translate(654,136)"/>
<path d="M0 0 C2 1 2 1 2 1 Z " fill="#372E2E" transform="translate(377,131)"/>
<path d="M0 0 C2 1 2 1 2 1 Z " fill="#322B2B" transform="translate(638,129)"/>
<path d="M0 0 C2 1 2 1 2 1 Z " fill="#3C3235" transform="translate(402,122)"/>
<path d="M0 0 C2 1 2 1 2 1 Z " fill="#362F2F" transform="translate(611,120)"/>
<path d="M0 0 C2 1 2 1 2 1 Z " fill="#403637" transform="translate(425,115)"/>
<path d="M0 0 C2 1 2 1 2 1 Z " fill="#3A3334" transform="translate(582,113)"/>
<path d="M0 0 C2 1 2 1 2 1 Z " fill="#473B3F" transform="translate(480,107)"/>
<path d="M0 0 C2 1 2 1 2 1 Z " fill="#413638" transform="translate(518,106)"/>
<path d="M0 0 C2 1 2 1 2 1 Z " fill="#413639" transform="translate(514,106)"/>
<path d="M0 0 C2 1 2 1 2 1 Z " fill="#40363A" transform="translate(507,106)"/>
<path d="M0 0 C2 1 2 1 2 1 Z " fill="#44383B" transform="translate(502,106)"/>
<path d="" fill="#5F5457" transform="translate(0,0)"/>
<path d="" fill="#5E5255" transform="translate(0,0)"/>
<path d="" fill="#464443" transform="translate(0,0)"/>
<path d="" fill="#564B4B" transform="translate(0,0)"/>
<path d="" fill="#584D50" transform="translate(0,0)"/>
<path d="" fill="#4A4242" transform="translate(0,0)"/>
<path d="" fill="#4B4042" transform="translate(0,0)"/>
<path d="" fill="#47393D" transform="translate(0,0)"/>
<path d="" fill="#493D3E" transform="translate(0,0)"/>
<path d="" fill="#463A3C" transform="translate(0,0)"/>
<path d="" fill="#493C3F" transform="translate(0,0)"/>
<path d="" fill="#483B3E" transform="translate(0,0)"/>
<path d="" fill="#453A3B" transform="translate(0,0)"/>
<path d="" fill="#45393C" transform="translate(0,0)"/>
<path d="" fill="#473A3C" transform="translate(0,0)"/>
<path d="" fill="#493C3E" transform="translate(0,0)"/>
<path d="" fill="#48393D" transform="translate(0,0)"/>
<path d="" fill="#473A3B" transform="translate(0,0)"/>
<path d="" fill="#473A3C" transform="translate(0,0)"/>
<path d="" fill="#46393D" transform="translate(0,0)"/>
<path d="" fill="#45393E" transform="translate(0,0)"/>
<path d="" fill="#3C3436" transform="translate(0,0)"/>
<path d="" fill="#423538" transform="translate(0,0)"/>
<path d="" fill="#3E3336" transform="translate(0,0)"/>
<path d="" fill="#453337" transform="translate(0,0)"/>
<path d="" fill="#413739" transform="translate(0,0)"/>
<path d="" fill="#423536" transform="translate(0,0)"/>
<path d="" fill="#413337" transform="translate(0,0)"/>
<path d="" fill="#3E3436" transform="translate(0,0)"/>
<path d="" fill="#413339" transform="translate(0,0)"/>
<path d="" fill="#3D3133" transform="translate(0,0)"/>
<path d="" fill="#3B3131" transform="translate(0,0)"/>
<path d="" fill="#3A2F31" transform="translate(0,0)"/>
<path d="" fill="#403235" transform="translate(0,0)"/>
<path d="" fill="#3C3131" transform="translate(0,0)"/>
<path d="" fill="#3C3133" transform="translate(0,0)"/>
<path d="" fill="#3C3234" transform="translate(0,0)"/>
<path d="" fill="#3C3132" transform="translate(0,0)"/>
<path d="" fill="#3D3234" transform="translate(0,0)"/>
<path d="" fill="#454442" transform="translate(0,0)"/>
<path d="" fill="#3B3034" transform="translate(0,0)"/>
<path d="" fill="#3B3031" transform="translate(0,0)"/>
<path d="" fill="#3A312F" transform="translate(0,0)"/>
<path d="" fill="#3C2E31" transform="translate(0,0)"/>
<path d="" fill="#3A302F" transform="translate(0,0)"/>
<path d="" fill="#393032" transform="translate(0,0)"/>
<path d="" fill="#392E32" transform="translate(0,0)"/>
<path d="" fill="#3B2F32" transform="translate(0,0)"/>
<path d="" fill="#3A2E31" transform="translate(0,0)"/>
<path d="" fill="#392F31" transform="translate(0,0)"/>
<path d="" fill="#362D2C" transform="translate(0,0)"/>
<path d="" fill="#3A2E32" transform="translate(0,0)"/>
<path d="" fill="#37312D" transform="translate(0,0)"/>
<path d="" fill="#372D2F" transform="translate(0,0)"/>
<path d="" fill="#362F31" transform="translate(0,0)"/>
<path d="" fill="#382E32" transform="translate(0,0)"/>
<path d="" fill="#382D30" transform="translate(0,0)"/>
<path d="" fill="#372E2E" transform="translate(0,0)"/>
<path d="" fill="#382C2E" transform="translate(0,0)"/>
<path d="" fill="#372C2E" transform="translate(0,0)"/>
<path d="" fill="#382E2F" transform="translate(0,0)"/>
<path d="" fill="#382D2F" transform="translate(0,0)"/>
<path d="" fill="#372B2E" transform="translate(0,0)"/>
<path d="" fill="#362D2C" transform="translate(0,0)"/>
<path d="" fill="#382C2F" transform="translate(0,0)"/>
<path d="" fill="#382D2F" transform="translate(0,0)"/>
<path d="" fill="#392E2F" transform="translate(0,0)"/>
<path d="" fill="#392D2F" transform="translate(0,0)"/>
<path d="" fill="#3A2F2D" transform="translate(0,0)"/>
<path d="" fill="#3B3030" transform="translate(0,0)"/>
<path d="" fill="#3B2F31" transform="translate(0,0)"/>
<path d="" fill="#392D2F" transform="translate(0,0)"/>
<path d="" fill="#382B2E" transform="translate(0,0)"/>
<path d="" fill="#372D2F" transform="translate(0,0)"/>
<path d="" fill="#332E2E" transform="translate(0,0)"/>
<path d="" fill="#362C2D" transform="translate(0,0)"/>
<path d="" fill="#352D2E" transform="translate(0,0)"/>
<path d="" fill="#352A2A" transform="translate(0,0)"/>
<path d="" fill="#342C2A" transform="translate(0,0)"/>
<path d="" fill="#332A2D" transform="translate(0,0)"/>
<path d="" fill="#342B2B" transform="translate(0,0)"/>
<path d="" fill="#342B2C" transform="translate(0,0)"/>
<path d="" fill="#362E2F" transform="translate(0,0)"/>
<path d="" fill="#332A2D" transform="translate(0,0)"/>
<path d="" fill="#32292B" transform="translate(0,0)"/>
<path d="" fill="#342D2E" transform="translate(0,0)"/>
<path d="" fill="#332A2C" transform="translate(0,0)"/>
<path d="" fill="#352E2E" transform="translate(0,0)"/>
<path d="" fill="#352A2C" transform="translate(0,0)"/>
<path d="" fill="#32292A" transform="translate(0,0)"/>
<path d="" fill="#342E2E" transform="translate(0,0)"/>
<path d="" fill="#352A2B" transform="translate(0,0)"/>
<path d="" fill="#342C2D" transform="translate(0,0)"/>
<path d="" fill="#312B2C" transform="translate(0,0)"/>
<path d="" fill="#352B2A" transform="translate(0,0)"/>
<path d="" fill="#342C2C" transform="translate(0,0)"/>
<path d="" fill="#362D30" transform="translate(0,0)"/>
<path d="" fill="#372A2A" transform="translate(0,0)"/>
<path d="" fill="#352C2B" transform="translate(0,0)"/>
<path d="" fill="#332B2B" transform="translate(0,0)"/>
<path d="" fill="#31282D" transform="translate(0,0)"/>
<path d="" fill="#342D2E" transform="translate(0,0)"/>
<path d="" fill="#37322E" transform="translate(0,0)"/>
<path d="" fill="#4B494A" transform="translate(0,0)"/>
<path d="" fill="#352A2F" transform="translate(0,0)"/>
<path d="" fill="#33292C" transform="translate(0,0)"/>
<path d="" fill="#302B2B" transform="translate(0,0)"/>
<path d="" fill="#352D2E" transform="translate(0,0)"/>
<path d="" fill="#372E2F" transform="translate(0,0)"/>
<path d="" fill="#342E2D" transform="translate(0,0)"/>
<path d="" fill="#363031" transform="translate(0,0)"/>
<path d="" fill="#362F2F" transform="translate(0,0)"/>
<path d="" fill="#393131" transform="translate(0,0)"/>
<path d="" fill="#393233" transform="translate(0,0)"/>
<path d="" fill="#4A4343" transform="translate(0,0)"/>
<path d="" fill="#3E3436" transform="translate(0,0)"/>
<path d="" fill="#3F3635" transform="translate(0,0)"/>
<path d="" fill="#383233" transform="translate(0,0)"/>
<path d="" fill="#3B3234" transform="translate(0,0)"/>
<path d="" fill="#3D3435" transform="translate(0,0)"/>
<path d="" fill="#393033" transform="translate(0,0)"/>
<path d="" fill="#373234" transform="translate(0,0)"/>
<path d="" fill="#3F3636" transform="translate(0,0)"/>
<path d="" fill="#3F3336" transform="translate(0,0)"/>
<path d="" fill="#4D4546" transform="translate(0,0)"/>
<path d="" fill="#3C3233" transform="translate(0,0)"/>
<path d="" fill="#3F3635" transform="translate(0,0)"/>
<path d="" fill="#3D3134" transform="translate(0,0)"/>
<path d="" fill="#3E3335" transform="translate(0,0)"/>
<path d="" fill="#3D3335" transform="translate(0,0)"/>
<path d="" fill="#3F3438" transform="translate(0,0)"/>
<path d="" fill="#3B3035" transform="translate(0,0)"/>
<path d="" fill="#382E33" transform="translate(0,0)"/>
<path d="" fill="#3D3036" transform="translate(0,0)"/>
<path d="" fill="#3A3034" transform="translate(0,0)"/>
<path d="" fill="#3C3234" transform="translate(0,0)"/>
<path d="" fill="#3F3136" transform="translate(0,0)"/>
<path d="" fill="#3B3333" transform="translate(0,0)"/>
<path d="" fill="#3D3136" transform="translate(0,0)"/>
<path d="" fill="#362C2E" transform="translate(0,0)"/>
<path d="" fill="#392F30" transform="translate(0,0)"/>
<path d="" fill="#372C2F" transform="translate(0,0)"/>
<path d="" fill="#382F30" transform="translate(0,0)"/>
<path d="" fill="#392E31" transform="translate(0,0)"/>
<path d="" fill="#3E3437" transform="translate(0,0)"/>
<path d="" fill="#3E3437" transform="translate(0,0)"/>
<path d="" fill="#504948" transform="translate(0,0)"/>
<path d="" fill="#3F3337" transform="translate(0,0)"/>
<path d="" fill="#3D3234" transform="translate(0,0)"/>
<path d="" fill="#413537" transform="translate(0,0)"/>
<path d="" fill="#403237" transform="translate(0,0)"/>
<path d="" fill="#3D3034" transform="translate(0,0)"/>
<path d="" fill="#423338" transform="translate(0,0)"/>
<path d="" fill="#5A5858" transform="translate(0,0)"/>
<path d="" fill="#555151" transform="translate(0,0)"/>
<path d="" fill="#3C3233" transform="translate(0,0)"/>
<path d="" fill="#3E3131" transform="translate(0,0)"/>
<path d="" fill="#3B3130" transform="translate(0,0)"/>
<path d="" fill="#3A3031" transform="translate(0,0)"/>
<path d="" fill="#3B3131" transform="translate(0,0)"/>
<path d="" fill="#3E3233" transform="translate(0,0)"/>
<path d="" fill="#3F2E33" transform="translate(0,0)"/>
<path d="" fill="#382D2E" transform="translate(0,0)"/>
<path d="" fill="#403436" transform="translate(0,0)"/>
<path d="" fill="#3C2E33" transform="translate(0,0)"/>
<path d="" fill="#3C3034" transform="translate(0,0)"/>
<path d="" fill="#3C3033" transform="translate(0,0)"/>
<path d="" fill="#362F2D" transform="translate(0,0)"/>
<path d="" fill="#3C3234" transform="translate(0,0)"/>
<path d="" fill="#393030" transform="translate(0,0)"/>
<path d="" fill="#382E30" transform="translate(0,0)"/>
<path d="" fill="#383031" transform="translate(0,0)"/>
<path d="" fill="#382E2F" transform="translate(0,0)"/>
<path d="" fill="#3A2D31" transform="translate(0,0)"/>
<path d="" fill="#383030" transform="translate(0,0)"/>
<path d="" fill="#3B3033" transform="translate(0,0)"/>
<path d="" fill="#393131" transform="translate(0,0)"/>
<path d="" fill="#393130" transform="translate(0,0)"/>
<path d="" fill="#393433" transform="translate(0,0)"/>
<path d="" fill="#403336" transform="translate(0,0)"/>
<path d="" fill="#342D2B" transform="translate(0,0)"/>
<path d="" fill="#3A3231" transform="translate(0,0)"/>
<path d="" fill="#3F3135" transform="translate(0,0)"/>
<path d="" fill="#3C3234" transform="translate(0,0)"/>
<path d="" fill="#443238" transform="translate(0,0)"/>
<path d="" fill="#3C3535" transform="translate(0,0)"/>
<path d="" fill="#423638" transform="translate(0,0)"/>
<path d="" fill="#3F3636" transform="translate(0,0)"/>
<path d="" fill="#413639" transform="translate(0,0)"/>
<path d="" fill="#3E3636" transform="translate(0,0)"/>
<path d="" fill="#42343A" transform="translate(0,0)"/>
<path d="" fill="#3F3735" transform="translate(0,0)"/>
<path d="" fill="#46383C" transform="translate(0,0)"/>
<path d="" fill="#45383C" transform="translate(0,0)"/>
<path d="" fill="#3D3634" transform="translate(0,0)"/>
<path d="" fill="#3C3436" transform="translate(0,0)"/>
<path d="" fill="#3C3335" transform="translate(0,0)"/>
<path d="" fill="#44383C" transform="translate(0,0)"/>
<path d="" fill="#46393C" transform="translate(0,0)"/>
<path d="" fill="#46393D" transform="translate(0,0)"/>
<path d="" fill="#3E3636" transform="translate(0,0)"/>
<path d="" fill="#45393E" transform="translate(0,0)"/>
<path d="" fill="#46363D" transform="translate(0,0)"/>
<path d="" fill="#44363C" transform="translate(0,0)"/>
<path d="" fill="#44373B" transform="translate(0,0)"/>
<path d="" fill="#3C3534" transform="translate(0,0)"/>
<path d="" fill="#45363B" transform="translate(0,0)"/>
<path d="" fill="#3B3535" transform="translate(0,0)"/>
<path d="" fill="#44373A" transform="translate(0,0)"/>
<path d="" fill="#383132" transform="translate(0,0)"/>
<path d="" fill="#56504F" transform="translate(0,0)"/>
<path d="" fill="#3A3131" transform="translate(0,0)"/>
<path d="" fill="#5D4F52" transform="translate(0,0)"/>
<path d="" fill="#3B3334" transform="translate(0,0)"/>
<path d="" fill="#383333" transform="translate(0,0)"/>
<path d="" fill="#433538" transform="translate(0,0)"/>
<path d="" fill="#423439" transform="translate(0,0)"/>
<path d="" fill="#423639" transform="translate(0,0)"/>
<path d="" fill="#413439" transform="translate(0,0)"/>
<path d="" fill="#403437" transform="translate(0,0)"/>
<path d="" fill="#403335" transform="translate(0,0)"/>
<path d="" fill="#595757" transform="translate(0,0)"/>
<path d="" fill="#3D3135" transform="translate(0,0)"/>
<path d="" fill="#3F3236" transform="translate(0,0)"/>
<path d="" fill="#3C3134" transform="translate(0,0)"/>
<path d="" fill="#3D3133" transform="translate(0,0)"/>
<path d="" fill="#3D3133" transform="translate(0,0)"/>
<path d="" fill="#352F2C" transform="translate(0,0)"/>
<path d="" fill="#34302F" transform="translate(0,0)"/>
<path d="" fill="#3B3032" transform="translate(0,0)"/>
<path d="" fill="#3D3132" transform="translate(0,0)"/>
<path d="" fill="#322E2D" transform="translate(0,0)"/>
<path d="" fill="#312E2C" transform="translate(0,0)"/>
<path d="" fill="#36302C" transform="translate(0,0)"/>
<path d="" fill="#342E2D" transform="translate(0,0)"/>
<path d="" fill="#302D2B" transform="translate(0,0)"/>
<path d="" fill="#3C2E32" transform="translate(0,0)"/>
<path d="" fill="#393032" transform="translate(0,0)"/>
<path d="" fill="#51514F" transform="translate(0,0)"/>
<path d="" fill="#464241" transform="translate(0,0)"/>
<path d="" fill="#413337" transform="translate(0,0)"/>
<path d="" fill="#312C29" transform="translate(0,0)"/>
<path d="" fill="#302A29" transform="translate(0,0)"/>
<path d="" fill="#332E2A" transform="translate(0,0)"/>
<path d="" fill="#3A2F30" transform="translate(0,0)"/>
<path d="" fill="#3B3032" transform="translate(0,0)"/>
<path d="" fill="#362B2D" transform="translate(0,0)"/>
<path d="" fill="#302D2C" transform="translate(0,0)"/>
<path d="" fill="#342A2C" transform="translate(0,0)"/>
<path d="" fill="#382D2D" transform="translate(0,0)"/>
<path d="" fill="#504F4C" transform="translate(0,0)"/>
<path d="" fill="#312F2A" transform="translate(0,0)"/>
<path d="" fill="#342A2B" transform="translate(0,0)"/>
<path d="" fill="#4F4F4B" transform="translate(0,0)"/>
<path d="" fill="#514A4B" transform="translate(0,0)"/>
<path d="" fill="#312C2B" transform="translate(0,0)"/>
<path d="" fill="#362D30" transform="translate(0,0)"/>
<path d="" fill="#332D2D" transform="translate(0,0)"/>
<path d="" fill="#352B2C" transform="translate(0,0)"/>
<path d="" fill="#342C2E" transform="translate(0,0)"/>
<path d="" fill="#342A2B" transform="translate(0,0)"/>
<path d="" fill="#35282C" transform="translate(0,0)"/>
<path d="" fill="#34292C" transform="translate(0,0)"/>
<path d="" fill="#322B2A" transform="translate(0,0)"/>
<path d="" fill="#302E2A" transform="translate(0,0)"/>
<path d="" fill="#362D2C" transform="translate(0,0)"/>
<path d="" fill="#332A2B" transform="translate(0,0)"/>
<path d="" fill="#332B29" transform="translate(0,0)"/>
<path d="" fill="#33292D" transform="translate(0,0)"/>
<path d="" fill="#302A2A" transform="translate(0,0)"/>
<path d="" fill="#302A28" transform="translate(0,0)"/>
<path d="" fill="#30272B" transform="translate(0,0)"/>
<path d="" fill="#322D2B" transform="translate(0,0)"/>
<path d="" fill="#322729" transform="translate(0,0)"/>
<path d="" fill="#2D2627" transform="translate(0,0)"/>
<path d="" fill="#4C4645" transform="translate(0,0)"/>
<path d="" fill="#2F2A28" transform="translate(0,0)"/>
<path d="" fill="#2E2726" transform="translate(0,0)"/>
<path d="" fill="#30282A" transform="translate(0,0)"/>
<path d="" fill="#2D2A27" transform="translate(0,0)"/>
<path d="" fill="#33272A" transform="translate(0,0)"/>
<path d="" fill="#32272A" transform="translate(0,0)"/>
<path d="" fill="#332E2B" transform="translate(0,0)"/>
<path d="" fill="#342A2A" transform="translate(0,0)"/>
<path d="" fill="#322E2B" transform="translate(0,0)"/>
<path d="" fill="#352B2A" transform="translate(0,0)"/>
<path d="" fill="#342B2A" transform="translate(0,0)"/>
<path d="" fill="#302B28" transform="translate(0,0)"/>
<path d="" fill="#342B2E" transform="translate(0,0)"/>
<path d="" fill="#2F2E29" transform="translate(0,0)"/>
<path d="" fill="#352F2D" transform="translate(0,0)"/>
<path d="" fill="#352C2E" transform="translate(0,0)"/>
<path d="" fill="#312B29" transform="translate(0,0)"/>
<path d="" fill="#4C494A" transform="translate(0,0)"/>
<path d="" fill="#342D2B" transform="translate(0,0)"/>
<path d="" fill="#322E28" transform="translate(0,0)"/>
<path d="" fill="#322D29" transform="translate(0,0)"/>
<path d="" fill="#322B29" transform="translate(0,0)"/>
<path d="" fill="#352C2E" transform="translate(0,0)"/>
<path d="" fill="#31292B" transform="translate(0,0)"/>
<path d="" fill="#332D2B" transform="translate(0,0)"/>
<path d="" fill="#36292D" transform="translate(0,0)"/>
<path d="" fill="#352C2D" transform="translate(0,0)"/>
<path d="" fill="#352D2C" transform="translate(0,0)"/>
<path d="" fill="#382D2E" transform="translate(0,0)"/>
<path d="" fill="#352B2D" transform="translate(0,0)"/>
<path d="" fill="#332C2C" transform="translate(0,0)"/>
<path d="" fill="#322F2A" transform="translate(0,0)"/>
<path d="" fill="#342C2A" transform="translate(0,0)"/>
<path d="" fill="#342F2B" transform="translate(0,0)"/>
<path d="" fill="#342A2E" transform="translate(0,0)"/>
<path d="" fill="#37292D" transform="translate(0,0)"/>
<path d="" fill="#352C2E" transform="translate(0,0)"/>
<path d="" fill="#362B2D" transform="translate(0,0)"/>
<path d="" fill="#2F2B2A" transform="translate(0,0)"/>
<path d="" fill="#332D2D" transform="translate(0,0)"/>
<path d="" fill="#4A4745" transform="translate(0,0)"/>
<path d="" fill="#342D2D" transform="translate(0,0)"/>
<path d="" fill="#342F2D" transform="translate(0,0)"/>
<path d="" fill="#332A2D" transform="translate(0,0)"/>
<path d="" fill="#362A2A" transform="translate(0,0)"/>
<path d="" fill="#392F2F" transform="translate(0,0)"/>
<path d="" fill="#32292C" transform="translate(0,0)"/>
<path d="" fill="#352B2C" transform="translate(0,0)"/>
<path d="" fill="#302B29" transform="translate(0,0)"/>
<path d="" fill="#342D2D" transform="translate(0,0)"/>
<path d="" fill="#34292D" transform="translate(0,0)"/>
<path d="" fill="#342F2A" transform="translate(0,0)"/>
<path d="" fill="#322B26" transform="translate(0,0)"/>
<path d="" fill="#32292B" transform="translate(0,0)"/>
<path d="" fill="#322D2C" transform="translate(0,0)"/>
<path d="" fill="#33282B" transform="translate(0,0)"/>
<path d="" fill="#332B2E" transform="translate(0,0)"/>
<path d="" fill="#332B2C" transform="translate(0,0)"/>
<path d="" fill="#2C292A" transform="translate(0,0)"/>
<path d="" fill="#35312C" transform="translate(0,0)"/>
<path d="" fill="#34292C" transform="translate(0,0)"/>
<path d="" fill="#362C2C" transform="translate(0,0)"/>
<path d="" fill="#332D2C" transform="translate(0,0)"/>
<path d="" fill="#342B2D" transform="translate(0,0)"/>
<path d="" fill="#352B2C" transform="translate(0,0)"/>
<path d="" fill="#342A2C" transform="translate(0,0)"/>
<path d="" fill="#372E2F" transform="translate(0,0)"/>
<path d="" fill="#4A4042" transform="translate(0,0)"/>
<path d="" fill="#332C29" transform="translate(0,0)"/>
<path d="" fill="#3B2F32" transform="translate(0,0)"/>
<path d="" fill="#382E30" transform="translate(0,0)"/>
<path d="" fill="#362D2E" transform="translate(0,0)"/>
<path d="" fill="#392E30" transform="translate(0,0)"/>
<path d="" fill="#3B2E30" transform="translate(0,0)"/>
<path d="" fill="#352F2E" transform="translate(0,0)"/>
<path d="" fill="#36302F" transform="translate(0,0)"/>
<path d="" fill="#392F33" transform="translate(0,0)"/>
<path d="" fill="#393230" transform="translate(0,0)"/>
<path d="" fill="#3B3234" transform="translate(0,0)"/>
<path d="" fill="#3C3234" transform="translate(0,0)"/>
<path d="" fill="#3D3236" transform="translate(0,0)"/>
<path d="" fill="#3C3334" transform="translate(0,0)"/>
<path d="" fill="#3E3437" transform="translate(0,0)"/>
<path d="" fill="#3B3533" transform="translate(0,0)"/>
<path d="" fill="#403437" transform="translate(0,0)"/>
<path d="" fill="#423438" transform="translate(0,0)"/>
<path d="" fill="#3C3634" transform="translate(0,0)"/>
<path d="" fill="#3A3232" transform="translate(0,0)"/>
<path d="" fill="#423738" transform="translate(0,0)"/>
<path d="" fill="#423838" transform="translate(0,0)"/>
<path d="" fill="#453C3C" transform="translate(0,0)"/>
<path d="" fill="#463A3C" transform="translate(0,0)"/>
<path d="" fill="#46393C" transform="translate(0,0)"/>
<path d="" fill="#413439" transform="translate(0,0)"/>
<path d="" fill="#43393A" transform="translate(0,0)"/>
<path d="" fill="#463B3E" transform="translate(0,0)"/>
<path d="" fill="#473B3F" transform="translate(0,0)"/>
<path d="" fill="#423639" transform="translate(0,0)"/>
<path d="" fill="#45393C" transform="translate(0,0)"/>
<path d="" fill="#555554" transform="translate(0,0)"/>
<path d="" fill="#53524E" transform="translate(0,0)"/>
<path d="" fill="#5B5353" transform="translate(0,0)"/>
<path d="" fill="#5D5456" transform="translate(0,0)"/>
<path d="" fill="#595154" transform="translate(0,0)"/>
<path d="" fill="#695C60" transform="translate(0,0)"/>
<path d="" fill="#6B5E62" transform="translate(0,0)"/>
<path d="" fill="#5D5957" transform="translate(0,0)"/>
<path d="" fill="#645D5D" transform="translate(0,0)"/>
<path d="" fill="#655E5D" transform="translate(0,0)"/>
<path d="" fill="#6E6264" transform="translate(0,0)"/>
</svg>
